<mxfile host="app.diagrams.net" modified="2021-03-19T19:40:15.927Z" agent="5.0 (Windows NT 10.0; Win64; x64) AppleWebKit/537.36 (KHTML, like Gecko) Chrome/89.0.4389.90 Safari/537.36" etag="sIOJvBlvjvl27DY9NY8j" version="14.4.9" type="github">
  <diagram id="SXXWEeyV9By4NUEat3Ey" name="Page-1">
    <mxGraphModel dx="683" dy="730" grid="1" gridSize="10" guides="1" tooltips="1" connect="1" arrows="1" fold="1" page="1" pageScale="1" pageWidth="850" pageHeight="1100" math="0" shadow="0">
      <root>
        <mxCell id="0" />
        <mxCell id="1" parent="0" />
        <mxCell id="7ekd8FyxpCXXgJrS_oEB-4" value="" style="rounded=1;whiteSpace=wrap;html=1;sketch=1;shadow=1;glass=0;" vertex="1" parent="1">
          <mxGeometry x="50" y="20" width="460" height="210" as="geometry" />
        </mxCell>
        <mxCell id="rGJi0qXOW82os7Kz2DqW-1" value="&lt;font face=&quot;Georgia&quot;&gt;&lt;span style=&quot;font-size: 27px&quot;&gt;Battery 3-5s&lt;/span&gt;&lt;/font&gt;" style="rounded=0;whiteSpace=wrap;html=1;glass=0;sketch=1;strokeWidth=2;shadow=0;fillStyle=hachure;fillColor=#d0cee2;strokeColor=#56517e;" parent="1" vertex="1">
          <mxGeometry x="70" y="60" width="280" height="80" as="geometry" />
        </mxCell>
        <mxCell id="7ekd8FyxpCXXgJrS_oEB-1" value="&lt;font face=&quot;Georgia&quot; style=&quot;font-size: 14px&quot;&gt;Level Indicator (LED)&lt;/font&gt;" style="rounded=0;whiteSpace=wrap;html=1;glass=0;sketch=1;strokeWidth=2;shadow=0;fillStyle=hachure;fillColor=#b0e3e6;strokeColor=#0e8088;" vertex="1" parent="1">
          <mxGeometry x="60" y="170" width="160" height="40" as="geometry" />
        </mxCell>
        <mxCell id="7ekd8FyxpCXXgJrS_oEB-3" value="&lt;font face=&quot;Georgia&quot; style=&quot;font-size: 14px&quot;&gt;High Current Fuse&lt;/font&gt;" style="rounded=0;whiteSpace=wrap;html=1;glass=0;sketch=1;strokeWidth=2;shadow=0;fillStyle=hachure;fillColor=#bac8d3;strokeColor=#23445d;" vertex="1" parent="1">
          <mxGeometry x="330" y="172.5" width="120" height="37.5" as="geometry" />
        </mxCell>
        <mxCell id="7ekd8FyxpCXXgJrS_oEB-5" value="&lt;font style=&quot;font-size: 16px&quot;&gt;Battery Casing&lt;/font&gt;" style="text;html=1;strokeColor=none;fillColor=none;align=center;verticalAlign=middle;whiteSpace=wrap;rounded=0;shadow=0;sketch=0;" vertex="1" parent="1">
          <mxGeometry x="240" y="30" width="120" height="20" as="geometry" />
        </mxCell>
        <mxCell id="7ekd8FyxpCXXgJrS_oEB-2" value="&lt;font face=&quot;Georgia&quot; style=&quot;font-size: 19px&quot;&gt;Anti spark plug&lt;/font&gt;" style="rounded=0;whiteSpace=wrap;html=1;glass=0;sketch=1;strokeWidth=2;shadow=0;fillStyle=hachure;fillColor=#fff2cc;strokeColor=#d6b656;gradientColor=#ffd966;" vertex="1" parent="1">
          <mxGeometry x="630" y="70" width="140" height="40" as="geometry" />
        </mxCell>
        <mxCell id="7ekd8FyxpCXXgJrS_oEB-14" value="" style="endArrow=none;html=1;shadow=0;strokeColor=#b85450;strokeWidth=3;entryX=0.998;entryY=0.075;entryDx=0;entryDy=0;entryPerimeter=0;exitX=0.999;exitY=0.214;exitDx=0;exitDy=0;exitPerimeter=0;fillColor=#f8cecc;" edge="1" parent="1" source="7ekd8FyxpCXXgJrS_oEB-4" target="rGJi0qXOW82os7Kz2DqW-1">
          <mxGeometry width="50" height="50" relative="1" as="geometry">
            <mxPoint x="290" y="180" as="sourcePoint" />
            <mxPoint x="340" y="130" as="targetPoint" />
          </mxGeometry>
        </mxCell>
        <mxCell id="7ekd8FyxpCXXgJrS_oEB-16" value="" style="endArrow=none;html=1;shadow=0;strokeColor=#d79b00;strokeWidth=3;entryX=0.998;entryY=0.075;entryDx=0;entryDy=0;entryPerimeter=0;exitX=1;exitY=0.116;exitDx=0;exitDy=0;exitPerimeter=0;fillColor=#ffe6cc;" edge="1" parent="1">
          <mxGeometry width="50" height="50" relative="1" as="geometry">
            <mxPoint x="509.9999999999999" y="70.0000000000001" as="sourcePoint" />
            <mxPoint x="349.43999999999994" y="70.48" as="targetPoint" />
          </mxGeometry>
        </mxCell>
        <mxCell id="7ekd8FyxpCXXgJrS_oEB-17" value="" style="endArrow=none;html=1;shadow=0;strokeColor=#82b366;strokeWidth=3;entryX=0.998;entryY=0.075;entryDx=0;entryDy=0;entryPerimeter=0;exitX=1;exitY=0.116;exitDx=0;exitDy=0;exitPerimeter=0;fillColor=#d5e8d4;" edge="1" parent="1">
          <mxGeometry width="50" height="50" relative="1" as="geometry">
            <mxPoint x="509.9999999999999" y="75.00000000000011" as="sourcePoint" />
            <mxPoint x="349.43999999999994" y="75.48000000000002" as="targetPoint" />
          </mxGeometry>
        </mxCell>
        <mxCell id="7ekd8FyxpCXXgJrS_oEB-18" value="" style="endArrow=none;html=1;shadow=0;strokeColor=#6c8ebf;strokeWidth=3;entryX=0.998;entryY=0.075;entryDx=0;entryDy=0;entryPerimeter=0;exitX=1;exitY=0.116;exitDx=0;exitDy=0;exitPerimeter=0;fillColor=#dae8fc;" edge="1" parent="1">
          <mxGeometry width="50" height="50" relative="1" as="geometry">
            <mxPoint x="511.9999999999999" y="81.00000000000011" as="sourcePoint" />
            <mxPoint x="351.43999999999994" y="81.48000000000002" as="targetPoint" />
          </mxGeometry>
        </mxCell>
        <mxCell id="7ekd8FyxpCXXgJrS_oEB-19" value="&lt;font style=&quot;font-size: 16px&quot;&gt;Balance Leads&lt;/font&gt;" style="text;html=1;strokeColor=none;fillColor=none;align=center;verticalAlign=middle;whiteSpace=wrap;rounded=0;shadow=0;sketch=0;" vertex="1" parent="1">
          <mxGeometry x="365" y="90" width="120" height="20" as="geometry" />
        </mxCell>
        <mxCell id="7ekd8FyxpCXXgJrS_oEB-21" value="" style="endArrow=none;html=1;shadow=0;strokeColor=#B20000;strokeWidth=7;entryX=-0.005;entryY=0.204;entryDx=0;entryDy=0;exitX=1;exitY=0.25;exitDx=0;exitDy=0;entryPerimeter=0;fillColor=#e51400;" edge="1" parent="1" source="7ekd8FyxpCXXgJrS_oEB-1" target="7ekd8FyxpCXXgJrS_oEB-3">
          <mxGeometry width="50" height="50" relative="1" as="geometry">
            <mxPoint x="250" y="210" as="sourcePoint" />
            <mxPoint x="300" y="160" as="targetPoint" />
          </mxGeometry>
        </mxCell>
        <mxCell id="7ekd8FyxpCXXgJrS_oEB-22" value="" style="endArrow=none;html=1;shadow=0;strokeWidth=7;entryX=-0.005;entryY=0.204;entryDx=0;entryDy=0;exitX=1;exitY=0.25;exitDx=0;exitDy=0;entryPerimeter=0;fillColor=#f5f5f5;gradientColor=#b3b3b3;strokeColor=#3B3B3B;" edge="1" parent="1">
          <mxGeometry width="50" height="50" relative="1" as="geometry">
            <mxPoint x="220.6" y="189.86" as="sourcePoint" />
            <mxPoint x="330" y="190.01" as="targetPoint" />
          </mxGeometry>
        </mxCell>
        <mxCell id="7ekd8FyxpCXXgJrS_oEB-23" value="" style="endArrow=none;html=1;shadow=0;strokeWidth=7;entryX=0.819;entryY=0.999;entryDx=0;entryDy=0;entryPerimeter=0;fillColor=#f5f5f5;gradientColor=#b3b3b3;strokeColor=#3B3B3B;" edge="1" parent="1" target="rGJi0qXOW82os7Kz2DqW-1">
          <mxGeometry width="50" height="50" relative="1" as="geometry">
            <mxPoint x="299" y="190" as="sourcePoint" />
            <mxPoint x="340" y="200.01" as="targetPoint" />
          </mxGeometry>
        </mxCell>
        <mxCell id="7ekd8FyxpCXXgJrS_oEB-24" value="" style="endArrow=none;html=1;shadow=0;strokeWidth=7;entryX=0.819;entryY=0.999;entryDx=0;entryDy=0;entryPerimeter=0;fillColor=#e51400;strokeColor=#B20000;" edge="1" parent="1">
          <mxGeometry width="50" height="50" relative="1" as="geometry">
            <mxPoint x="289.88" y="180" as="sourcePoint" />
            <mxPoint x="290.0399999999999" y="140.00000000000003" as="targetPoint" />
          </mxGeometry>
        </mxCell>
        <mxCell id="7ekd8FyxpCXXgJrS_oEB-26" value="" style="endArrow=none;html=1;shadow=0;strokeColor=#B20000;strokeWidth=7;exitX=1;exitY=0.25;exitDx=0;exitDy=0;fillColor=#e51400;" edge="1" parent="1">
          <mxGeometry width="50" height="50" relative="1" as="geometry">
            <mxPoint x="450" y="184.83" as="sourcePoint" />
            <mxPoint x="510" y="185" as="targetPoint" />
          </mxGeometry>
        </mxCell>
        <mxCell id="7ekd8FyxpCXXgJrS_oEB-27" value="" style="endArrow=none;html=1;shadow=0;strokeWidth=7;exitX=1;exitY=0.25;exitDx=0;exitDy=0;fillColor=#f5f5f5;gradientColor=#b3b3b3;strokeColor=#3B3B3B;" edge="1" parent="1">
          <mxGeometry width="50" height="50" relative="1" as="geometry">
            <mxPoint x="450.6" y="194.69000000000003" as="sourcePoint" />
            <mxPoint x="510" y="195" as="targetPoint" />
          </mxGeometry>
        </mxCell>
      </root>
    </mxGraphModel>
  </diagram>
</mxfile>
